# AST/ASF file generated using VICON BodyLanguage
# -----------------------------------------------
:version 1.10
:name VICON
:units
  mass 1.0
  length 0.45
  angle deg
:documentation
   .ast/.asf automatically generated from VICON data using
   VICON BodyBuilder and BodyLanguage model FoxedUp or BRILLIANT.MOD
:root
   order TX TY TZ RX RY RZ
   axis XYZ
   position 0 0 0  
   orientation 0 0 0 
:bonedata
  begin
     id 1 
     name lhipjoint
     direction 0.589753 -0.68606 0.426044 
     length 2.54082 
     axis 0 0 0  XYZ
  end
  begin
     id 2 
     name lfemur
     direction 0.34202 -0.939693 0  
     length 7.04539  
     axis 0 0 20  XYZ
    dof rx ry rz
    limits (-160.0 20.0)
           (-70.0 70.0)
           (-60.0 70.0)
  end
  begin
     id 3 
     name ltibia
     direction 0.34202 -0.939693 0   
     length 7.83772   
     axis 0 0 20   XYZ
    dof rx
    limits (-10.0 170.0)
  end
  begin
     id 4 
     name lfoot
     direction 0.0596604 -0.163915 0.984669   
     length 2.39542   
     axis -90 7.62852e-016 20   XYZ
    dof rx rz
    limits (-45.0 90.0)
           (-70.0 20.0)
  end
  begin
     id 5 
     name ltoes
     direction 1.53514e-011 -4.21954e-011 1   
     length 1.2047   
     axis -90 7.62852e-016 20   XYZ
    dof rx
    limits (-90.0 20.0)
  end
  begin
     id 6 
     name rhipjoint
     direction -0.580585 -0.69168 0.429534   
     length 2.52018  
     axis 0 0 0  XYZ 
  end
  begin
     id 7 
     name rfemur
     direction -0.34202 -0.939693 0   
     length 7.0101   
     axis 0 0 -20   XYZ
    dof rx ry rz
    limits (-160.0 20.0)
           (-70.0 70.0)
           (-70.0 60.0)
  end
  begin
     id 8 
     name rtibia
     direction -0.34202 -0.939693 0   
     length 7.70628   
     axis 0 0 -20   XYZ
    dof rx
    limits (-10.0 170.0)
 end
 begin
     id 9 
     name rfoot
     direction -0.0696237 -0.19129 0.979061   
     length 2.52466  
     axis -90 -7.62852e-016 -20   XYZ
    dof rx rz
    limits (-45.0 90.0)
           (-20.0 70.0)
  end
  begin
     id 10 
     name rtoes
     direction -1.53519e-011 -4.21793e-011 1   
     length 1.266   
     axis -90 -7.62852e-016 -20   XYZ
    dof rx
    limits (-90.0 20.0)
  end
  begin
     id 11 
     name lowerback
     direction 0.00381965 0.995707 -0.0924856   
     length 2.20825   
     axis 0 0 0   XYZ
    dof rx ry rz
    limits (-20.0 45.0)
           (-30.0 30.0)
           (-30.0 30.0)
  end
  begin
     id 12 
     name upperback
     direction -0.0139043 0.999634 -0.0231929   
     length 2.21517   
     axis 0 0 0   XYZ
    dof rx ry rz
    limits (-20.0 45.0)
           (-30.0 30.0)
           (-30.0 30.0)
  end
  begin
     id 13 
     name thorax
     direction -0.0143933 0.999691 0.0202892   
     length 2.22911   
     axis 0 0 0   XYZ
    dof rx ry rz
    limits (-20.0 45.0)
           (-30.0 30.0)
           (-30.0 30.0)
  end
  begin
     id 14 
     name lowerneck
     direction -0.0251153 0.981819 0.188153   
     length 1.61782   
     axis 0 0 0   XYZ
    dof rx ry rz
    limits (-20.0 45.0)
           (-30.0 30.0)
           (-30.0 30.0)
  end
  begin
     id 15 
     name upperneck
     direction 0.0563891 0.969357 -0.239095   
     length 1.64526   
     axis 0 0 0   XYZ
    dof rx ry rz
    limits (-20.0 45.0)
           (-30.0 30.0)
           (-30.0 30.0)
  end
  begin
     id 16
     name head
     direction 0.0208328 0.99459 -0.101773  
     length 1.67436  
     axis 0 0 0   XYZ
    dof rx ry rz
    limits (-20.0 45.0)
           (-30.0 30.0)
           (-30.0 30.0)
  end
  begin
     id 17 
     name lclavicle
     direction 0.917689 0.397224 0.00772059  
     length 3.31102  
     axis 0 0 0   XYZ
    dof ry rz
    limits (-20.0 10.0)
           (0.0 20.0)
  end
  begin
     id 18 
     name lhumerus
     direction 1 -4.4896e-011 2.32308e-027   
     length 5.25537   
     axis 180 -30 -90   XYZ
    dof rx ry rz
    limits (-60.0 90.0)
           (-90.0 90.0)
           (-90.0 90.0)
  end
  begin
     id 19
     name lradius
     direction 1 -4.49005e-011 -2.04271e-027   
     length 3.38855   
     axis 180 -30 -90   XYZ
    dof rx
    limits (-10.0 170.0)
  end
  begin
     id 20
     name lwrist
     direction 1 -4.48892e-011 2.56952e-028   
     length 1.69428   
     axis -5.12785e-016 90 90   XYZ
    dof ry
    limits (-180.0 0.0)
 end
  begin
     id 21 
     name lhand
     direction 1 -4.48966e-011 5.13905e-028   
     length 0.614516   
     axis -3.27915e-016 90 90   XYZ
    dof rx rz
    limits (-90.0 90.0)
           (-45.0 45.0)
  end
  begin
     id 22 
     name lfingers
     direction 1 -4.48979e-011 1.02781e-027   
     length 0.495439   
     axis -6.5583e-016 90 90   XYZ
    dof rx
    limits (0.0 90.0)
  end
  begin
     id 23
     name lthumb
     direction 0.707107 -6.35001e-011 0.707107   
     length 0.711354   
     axis -90 45 2.85299e-015   XYZ
    dof rx rz
    limits (-45.0 45.0)
           (-45.0 45.0)
  end
  begin
     id 24 
     name rclavicle
     direction -0.938556 0.342765 -0.0403177   
     length 3.27019  
     axis 0 0 0   XYZ 
    dof ry rz
    limits (-10.0 20.0)
           (-20.0 0.0)
  end
  begin
     id 25 
     name rhumerus
     direction -1 -4.48966e-011 2.52291e-027  
     length 5.38183   
     axis 180 30 90   XYZ
    dof rx ry rz
    limits (-90.0 60.0)
           (-90.0 90.0)
           (-90.0 90.0)
  end
  begin
     id 26 
     name rradius
     direction -1 -4.4896e-011 1.5797e-027   
     length 3.16988   
     axis 180 30 90   XYZ
    dof rx
    limits (-10.0 170.0)
  end
  begin
     id 27 
     name rwrist
     direction -1 -4.48947e-011 2.56952e-028   
     length 1.58494   
     axis -5.12785e-016 -90 -90   XYZ
    dof ry
    limits (-180.0 0.0)
  end
  begin
     id 28
     name rhand
     direction -1 -4.49098e-011 5.13905e-028   
     length 0.637679   
     axis -3.27915e-016 -90 -90   XYZ
    dof rx rz
    limits (-90.0 90.0)
           (-45.0 45.0)
  end
  begin
     id 29
     name rfingers
     direction -1 -4.49026e-011 1.02781e-027   
     length 0.514113   
     axis -6.5583e-016 -90 -90   XYZ
    dof rx
    limits (0.0 90.0)
  end
  begin
     id 30
     name rthumb
     direction -0.707107 -6.3491e-011 0.707107   
     length 0.738167   
     axis -90 -45 -2.85299e-015   XYZ
    dof rx rz
    limits (-45.0 45.0)
           (-45.0 45.0)
  end
:hierarchy
  begin
    root lhipjoint rhipjoint lowerback
    lhipjoint lfemur
    lfemur ltibia
    ltibia lfoot
    lfoot ltoes
    rhipjoint rfemur
    rfemur rtibia
    rtibia rfoot
    rfoot rtoes
    lowerback upperback
    upperback thorax
    thorax lowerneck lclavicle rclavicle
    lowerneck upperneck
    upperneck head
    lclavicle lhumerus
    lhumerus lradius
    lradius lwrist
    lwrist lhand lthumb
    lhand lfingers
    rclavicle rhumerus
    rhumerus rradius
    rradius rwrist
    rwrist rhand rthumb
    rhand rfingers
  end

#!OML:ASF H:\Swim\Project 1\Capture day 1\Session 1\swimmer.ASF
:FULLY-SPECIFIED
:DEGREES
16
root 8.24863 15.5677 29.6722 -178.325 -9.52849 177.788
lowerback 10.1992 -0.519388 1.43792
upperback 2.70894 -0.801353 -1.16746
thorax -2.93218 -0.497973 -1.91522
lowerneck -30.7123 6.77172 1.91507
upperneck 24.6846 8.61093 -0.0313754
head 13.4753 3.87478 1.39145
rclavicle 3.38307e-014 -1.04859e-014
rhumerus 42.1193 -15.5229 -56.2715
rradius 71.2463
rwrist 7.06479
rhand 45.3662 -7.51851
rfingers 7.12502
rthumb 66.665 -11.6543
lclavicle 3.38307e-014 -1.04859e-014
lhumerus 41.4493 9.31716 50.5404
lradius 73.1704
lwrist -5.12912
lhand 53.7167 14.6085
lfingers 7.12502
lthumb 72.1709 1.78236
rfemur -23.7613 -15.7662 5.84572
rtibia 52.1902
rfoot -20.0587 -17.8531
rtoes -13.5261
lfemur -28.749 3.25663 -10.9711
ltibia 51.6864
lfoot -19.1325 6.44662
ltoes -14.2599
17
root 8.24642 15.5647 29.6775 -178.292 -9.52576 177.781
lowerback 10.2002 -0.515448 1.43809
upperback 2.72649 -0.796789 -1.15098
thorax -2.91407 -0.49595 -1.89884
lowerneck -30.7076 6.76765 1.89038
upperneck 24.791 8.61022 -0.00977262
head 13.5162 3.87154 1.40627
rclavicle -1.36664e-015 1.45113e-014
rhumerus 42.1578 -15.5277 -56.2989
rradius 71.3156
rwrist 7.07099
rhand 45.2825 -7.61207
rfingers 7.12502
rthumb 66.6016 -11.8745
lclavicle -1.36664e-015 1.45113e-014
lhumerus 41.4242 9.38575 50.6501
lradius 73.2881
lwrist -5.2256
lhand 53.539 14.5875
lfingers 7.12502
lthumb 72.0757 2.22637
rfemur -23.848 -15.782 5.83721
rtibia 52.2415
rfoot -20.0571 -17.841
rtoes -13.5077
lfemur -28.8369 3.23245 -10.9912
ltibia 51.7485
lfoot -19.1456 6.47388
ltoes -14.2246
18
root 8.24389 15.561 29.6829 -178.258 -9.5129 177.774
lowerback 10.1982 -0.509125 1.43981
upperback 2.74433 -0.789005 -1.13603
thorax -2.89387 -0.492321 -1.88535
lowerneck -30.7076 6.75308 1.855
upperneck 24.913 8.59404 0.0282465
head 13.5631 3.86247 1.42668
rclavicle -2.9122e-014 -5.1684e-015
rhumerus 42.2025 -15.5069 -56.2908
rradius 71.3323
rwrist 7.13121
rhand 45.1998 -7.65079
rfingers 7.12502
rthumb 66.5388 -12.0376
lclavicle -2.9122e-014 -5.1684e-015
lhumerus 41.4036 9.44348 50.7462
lradius 73.3803
lwrist -5.26822
lhand 53.3567 14.5537
lfingers 7.12502
lthumb 71.9768 2.66451
rfemur -23.9471 -15.7918 5.82868
rtibia 52.3049
rfoot -20.0558 -17.8284
rtoes -13.496
lfemur -28.9314 3.21578 -11.0124
ltibia 51.8245
lfoot -19.1622 6.50703
ltoes -14.1936
19
root 8.24111 15.5566 29.6883 -178.225 -9.49162 177.768
lowerback 10.1951 -0.501438 1.44535
upperback 2.76138 -0.7791 -1.124
thorax -2.87392 -0.487649 -1.87732
lowerneck -30.7093 6.72828 1.81355
upperneck 25.0494 8.56154 0.0795645
head 13.6153 3.84722 1.45044
rclavicle -5.26779e-015 -5.86415e-015
rhumerus 42.246 -15.4614 -56.2538
rradius 71.3075
rwrist 7.22499
rhand 45.1145 -7.63878
rfingers 7.12502
rthumb 66.474 -12.1531
lclavicle -5.26779e-015 -5.86415e-015
lhumerus 41.3806 9.48972 50.8277
lradius 73.4589
lwrist -5.26675
lhand 53.1662 14.526
lfingers 7.12502
lthumb 71.872 3.1243
rfemur -24.054 -15.7948 5.82085
rtibia 52.3786
rfoot -20.0596 -17.8138
rtoes -13.4829
lfemur -29.0299 3.20769 -11.0333
ltibia 51.913
lfoot -19.1821 6.54396
ltoes -14.1706
20
root 8.23814 15.5518 29.6936 -178.196 -9.46721 177.766
lowerback 10.1906 -0.492979 1.45673
upperback 2.77851 -0.767708 -1.11486
thorax -2.85316 -0.482259 -1.87579
lowerneck -30.7095 6.69178 1.76677
upperneck 25.2019 8.5096 0.1456
head 13.673 3.8247 1.47731
rclavicle 1.62258e-014 -5.06901e-015
rhumerus 42.2821 -15.3963 -56.1977
rradius 71.2524
rwrist 7.32834
rhand 45.0222 -7.60546
rfingers 7.12502
rthumb 66.4038 -12.257
lclavicle 1.62258e-014 -5.06901e-015
lhumerus 41.3541 9.52051 50.8982
lradius 73.5319
lwrist -5.24605
lhand 52.9675 14.4981
lfingers 7.12502
lthumb 71.7614 3.59876
rfemur -24.1605 -15.7932 5.81577
rtibia 52.4588
rfoot -20.0636 -17.803
rtoes -13.4809
lfemur -29.1273 3.2065 -11.0503
ltibia 52.0105
lfoot -19.2043 6.57788
ltoes -14.146
21
root 8.23504 15.5467 29.6986 -178.174 -9.44102 177.771
lowerback 10.1886 -0.483798 1.47694
upperback 2.79383 -0.754423 -1.10823
thorax -2.83564 -0.475958 -1.88205
lowerneck -30.7006 6.64284 1.71941
upperneck 25.369 8.43608 0.22234
head 13.7347 3.79392 1.50424
rclavicle 1.04859e-014 3.08116e-015
rhumerus 42.3018 -15.3153 -56.1295
rradius 71.1794
rwrist 7.42198
rhand 44.9192 -7.56052
rfingers 7.12502
rthumb 66.3252 -12.3642
lclavicle 1.04859e-014 3.08116e-015
lhumerus 41.3183 9.53248 50.956
lradius 73.6095
lwrist -5.22177
lhand 52.772 14.4798
lfingers 7.12502
lthumb 71.6511 4.06869
rfemur -24.2617 -15.7868 5.81704
rtibia 52.5427
rfoot -20.0681 -17.7974
rtoes -13.4895
lfemur -29.2204 3.21376 -11.059
ltibia 52.1149
lfoot -19.2295 6.60695
ltoes -14.1291
22
root 8.232 15.5415 29.7031 -178.164 -9.42439 177.783
lowerback 10.19 -0.476883 1.5042
upperback 2.81042 -0.743608 -1.10313
thorax -2.81892 -0.47097 -1.89354
lowerneck -30.6861 6.58009 1.66857
upperneck 25.5532 8.33938 0.31194
head 13.802 3.7541 1.53242
rclavicle -3.18055e-015 -8.94531e-015
rhumerus 42.3056 -15.2251 -56.0587
rradius 71.0973
rwrist 7.49802
rhand 44.8017 -7.51641
rfingers 7.12502
rthumb 66.2353 -12.4924
lclavicle -3.18055e-015 -8.94531e-015
lhumerus 41.2766 9.52544 51.0016
lradius 73.6938
lwrist -5.20894
lhand 52.5153 14.4187
lfingers 7.12502
lthumb 71.5041 4.6398
rfemur -24.3444 -15.7829 5.82301
rtibia 52.6271
rfoot -20.0778 -17.7973
rtoes -13.5059
lfemur -29.3038 3.22135 -11.0584
ltibia 52.2226
lfoot -19.256 6.62839
ltoes -14.1174
